{
	"asset":{
		"generator":"Khronos glTF Blender I/O v4.2.60",
		"version":"2.0"
	},
	"extensionsUsed":[
		"KHR_materials_specular"
	],
	"scene":0,
	"scenes":[
		{
			"name":"Scene",
			"nodes":[
				0
			]
		}
	],
	"nodes":[
		{
			"mesh":0,
			"name":"Baalshamin_Temple_110k_miniature_1"
		}
	],
	"materials":[
		{
			"doubleSided":true,
			"name":"Baalshamin_Temple-Walls",
			"normalTexture":{
				"index":0
			},
			"pbrMetallicRoughness":{
				"baseColorTexture":{
					"index":1
				},
				"metallicFactor":0,
				"roughnessFactor":0.5
			}
		},
		{
			"doubleSided":true,
			"name":"Baalshamin_Temple-Floor",
			"normalTexture":{
				"index":2
			},
			"pbrMetallicRoughness":{
				"baseColorTexture":{
					"index":3
				},
				"metallicFactor":0,
				"roughnessFactor":0.5
			}
		},
		{
			"doubleSided":true,
			"name":"Baalshamin_Temple-PillarsOrnaments",
			"normalTexture":{
				"index":4
			},
			"pbrMetallicRoughness":{
				"baseColorTexture":{
					"index":5
				},
				"metallicFactor":0,
				"roughnessFactor":0.5
			}
		},
		{
			"doubleSided":true,
			"name":"Baalshamin_Temple-FloorSand",
			"normalTexture":{
				"index":6
			},
			"pbrMetallicRoughness":{
				"baseColorTexture":{
					"index":7
				},
				"metallicFactor":0,
				"roughnessFactor":0.5
			}
		},
		{
			"doubleSided":true,
			"name":"Baalshamin_Temple-Inside",
			"normalTexture":{
				"index":8
			},
			"pbrMetallicRoughness":{
				"baseColorTexture":{
					"index":9
				},
				"metallicFactor":0,
				"roughnessFactor":0.5
			}
		},
		{
			"doubleSided":true,
			"extensions":{
				"KHR_materials_specular":{
					"specularColorFactor":[
						2.0,
						2.0,
						2.0
					]
				}
			},
			"name":"Baalshamin_Temple-WallMortar",
			"normalTexture":{
				"index":10
			},
			"pbrMetallicRoughness":{
				"baseColorTexture":{
					"index":11
				},
				"metallicFactor":0,
				"roughnessFactor":0.5
			}
		}
	],
	"meshes":[
		{
			"name":"Mesh",
			"primitives":[
				{
					"attributes":{
						"POSITION":0,
						"NORMAL":1,
						"TEXCOORD_0":2
					},
					"indices":3,
					"material":0
				},
				{
					"attributes":{
						"POSITION":4,
						"NORMAL":5,
						"TEXCOORD_0":6
					},
					"indices":7,
					"material":1
				},
				{
					"attributes":{
						"POSITION":8,
						"NORMAL":9,
						"TEXCOORD_0":10
					},
					"indices":11,
					"material":2
				},
				{
					"attributes":{
						"POSITION":12,
						"NORMAL":13,
						"TEXCOORD_0":14
					},
					"indices":15,
					"material":3
				},
				{
					"attributes":{
						"POSITION":16,
						"NORMAL":17,
						"TEXCOORD_0":18
					},
					"indices":19,
					"material":4
				},
				{
					"attributes":{
						"POSITION":20,
						"NORMAL":21,
						"TEXCOORD_0":22
					},
					"indices":23,
					"material":5
				}
			]
		}
	],
	"textures":[
		{
			"sampler":0,
			"source":0
		},
		{
			"sampler":0,
			"source":1
		},
		{
			"sampler":0,
			"source":2
		},
		{
			"sampler":0,
			"source":3
		},
		{
			"sampler":0,
			"source":4
		},
		{
			"sampler":0,
			"source":5
		},
		{
			"sampler":0,
			"source":2
		},
		{
			"sampler":0,
			"source":6
		},
		{
			"sampler":0,
			"source":7
		},
		{
			"sampler":0,
			"source":8
		},
		{
			"sampler":0,
			"source":0
		},
		{
			"sampler":0,
			"source":1
		}
	],
	"images":[
		{
			"mimeType":"image/jpeg",
			"name":"BaalshaminTemple_lowpoly_v008_export_Walls_Normal",
			"uri":"BaalshaminTemple_lowpoly_v008_export_Walls_Normal.jpg"
		},
		{
			"mimeType":"image/jpeg",
			"name":"BaalshaminTemple_lowpoly_v008_export_Walls_Diffuse",
			"uri":"BaalshaminTemple_lowpoly_v008_export_Walls_Diffuse.jpg"
		},
		{
			"mimeType":"image/jpeg",
			"name":"BaalshaminTemple_lowpoly_v008_export_Floor_Normal",
			"uri":"BaalshaminTemple_lowpoly_v008_export_Floor_Normal.jpg"
		},
		{
			"mimeType":"image/jpeg",
			"name":"BaalshaminTemple_lowpoly_v008_export_Floor_Diffuse",
			"uri":"BaalshaminTemple_lowpoly_v008_export_Floor_Diffuse.jpg"
		},
		{
			"mimeType":"image/jpeg",
			"name":"BaalshaminTemple_lowpoly_v008_export_PilarsOrnaments_Normal",
			"uri":"BaalshaminTemple_lowpoly_v008_export_PilarsOrnaments_Normal.jpg"
		},
		{
			"mimeType":"image/jpeg",
			"name":"BaalshaminTemple_lowpoly_v008_export_PilarsOrnaments_Diffuse",
			"uri":"BaalshaminTemple_lowpoly_v008_export_PilarsOrnaments_Diffuse.jpg"
		},
		{
			"mimeType":"image/jpeg",
			"name":"BaalshaminTemple_lowpoly_v008_export_FloorSand_Diffuse",
			"uri":"BaalshaminTemple_lowpoly_v008_export_FloorSand_Diffuse.jpg"
		},
		{
			"mimeType":"image/jpeg",
			"name":"BaalshaminTemple_lowpoly_v008_export_Inside_Normal",
			"uri":"BaalshaminTemple_lowpoly_v008_export_Inside_Normal.jpg"
		},
		{
			"mimeType":"image/jpeg",
			"name":"BaalshaminTemple_lowpoly_v008_export_Inside_Diffuse",
			"uri":"BaalshaminTemple_lowpoly_v008_export_Inside_Diffuse.jpg"
		}
	],
	"accessors":[
		{
			"bufferView":0,
			"componentType":5126,
			"count":31584,
			"max":[
				0.7016288042068481,
				1.6373445987701416,
				1.05720853805542
			],
			"min":[
				-0.702473521232605,
				0.10276897996664047,
				-1.2119619846343994
			],
			"type":"VEC3"
		},
		{
			"bufferView":1,
			"componentType":5126,
			"count":31584,
			"type":"VEC3"
		},
		{
			"bufferView":2,
			"componentType":5126,
			"count":31584,
			"type":"VEC2"
		},
		{
			"bufferView":3,
			"componentType":5123,
			"count":79458,
			"type":"SCALAR"
		},
		{
			"bufferView":4,
			"componentType":5126,
			"count":14180,
			"max":[
				0.7641648650169373,
				0.27183449268341064,
				1.1648844480514526
			],
			"min":[
				-0.7550141215324402,
				0.03696494922041893,
				-1.2604526281356812
			],
			"type":"VEC3"
		},
		{
			"bufferView":5,
			"componentType":5126,
			"count":14180,
			"type":"VEC3"
		},
		{
			"bufferView":6,
			"componentType":5126,
			"count":14180,
			"type":"VEC2"
		},
		{
			"bufferView":7,
			"componentType":5123,
			"count":31053,
			"type":"SCALAR"
		},
		{
			"bufferView":8,
			"componentType":5126,
			"count":66413,
			"max":[
				0.7404604554176331,
				1.529531717300415,
				1.126173973083496
			],
			"min":[
				-0.7430967688560486,
				0.25106894969940186,
				-1.2536420822143555
			],
			"type":"VEC3"
		},
		{
			"bufferView":9,
			"componentType":5126,
			"count":66413,
			"type":"VEC3"
		},
		{
			"bufferView":10,
			"componentType":5126,
			"count":66413,
			"type":"VEC2"
		},
		{
			"bufferView":11,
			"componentType":5125,
			"count":141570,
			"type":"SCALAR"
		},
		{
			"bufferView":12,
			"componentType":5126,
			"count":4,
			"max":[
				0.5935603976249695,
				0.15313728153705597,
				0.2604227066040039
			],
			"min":[
				-0.5667786002159119,
				0.1531372219324112,
				-1.1195138692855835
			],
			"type":"VEC3"
		},
		{
			"bufferView":13,
			"componentType":5126,
			"count":4,
			"type":"VEC3"
		},
		{
			"bufferView":14,
			"componentType":5126,
			"count":4,
			"type":"VEC2"
		},
		{
			"bufferView":15,
			"componentType":5123,
			"count":6,
			"type":"SCALAR"
		},
		{
			"bufferView":16,
			"componentType":5126,
			"count":29242,
			"max":[
				0.570462703704834,
				0.9628418684005737,
				0.20978572964668274
			],
			"min":[
				-0.5620612502098083,
				0.12523464858531952,
				-1.0428493022918701
			],
			"type":"VEC3"
		},
		{
			"bufferView":17,
			"componentType":5126,
			"count":29242,
			"type":"VEC3"
		},
		{
			"bufferView":18,
			"componentType":5126,
			"count":29242,
			"type":"VEC2"
		},
		{
			"bufferView":19,
			"componentType":5123,
			"count":72393,
			"type":"SCALAR"
		},
		{
			"bufferView":20,
			"componentType":5126,
			"count":1558,
			"max":[
				0.561886727809906,
				0.6198343634605408,
				0.28210166096687317
			],
			"min":[
				-0.6315621733665466,
				0.22201146185398102,
				-1.1597518920898438
			],
			"type":"VEC3"
		},
		{
			"bufferView":21,
			"componentType":5126,
			"count":1558,
			"type":"VEC3"
		},
		{
			"bufferView":22,
			"componentType":5126,
			"count":1558,
			"type":"VEC2"
		},
		{
			"bufferView":23,
			"componentType":5123,
			"count":3297,
			"type":"SCALAR"
		}
	],
	"bufferViews":[
		{
			"buffer":0,
			"byteLength":379008,
			"byteOffset":0,
			"target":34962
		},
		{
			"buffer":0,
			"byteLength":379008,
			"byteOffset":379008,
			"target":34962
		},
		{
			"buffer":0,
			"byteLength":252672,
			"byteOffset":758016,
			"target":34962
		},
		{
			"buffer":0,
			"byteLength":158916,
			"byteOffset":1010688,
			"target":34963
		},
		{
			"buffer":0,
			"byteLength":170160,
			"byteOffset":1169604,
			"target":34962
		},
		{
			"buffer":0,
			"byteLength":170160,
			"byteOffset":1339764,
			"target":34962
		},
		{
			"buffer":0,
			"byteLength":113440,
			"byteOffset":1509924,
			"target":34962
		},
		{
			"buffer":0,
			"byteLength":62106,
			"byteOffset":1623364,
			"target":34963
		},
		{
			"buffer":0,
			"byteLength":796956,
			"byteOffset":1685472,
			"target":34962
		},
		{
			"buffer":0,
			"byteLength":796956,
			"byteOffset":2482428,
			"target":34962
		},
		{
			"buffer":0,
			"byteLength":531304,
			"byteOffset":3279384,
			"target":34962
		},
		{
			"buffer":0,
			"byteLength":566280,
			"byteOffset":3810688,
			"target":34963
		},
		{
			"buffer":0,
			"byteLength":48,
			"byteOffset":4376968,
			"target":34962
		},
		{
			"buffer":0,
			"byteLength":48,
			"byteOffset":4377016,
			"target":34962
		},
		{
			"buffer":0,
			"byteLength":32,
			"byteOffset":4377064,
			"target":34962
		},
		{
			"buffer":0,
			"byteLength":12,
			"byteOffset":4377096,
			"target":34963
		},
		{
			"buffer":0,
			"byteLength":350904,
			"byteOffset":4377108,
			"target":34962
		},
		{
			"buffer":0,
			"byteLength":350904,
			"byteOffset":4728012,
			"target":34962
		},
		{
			"buffer":0,
			"byteLength":233936,
			"byteOffset":5078916,
			"target":34962
		},
		{
			"buffer":0,
			"byteLength":144786,
			"byteOffset":5312852,
			"target":34963
		},
		{
			"buffer":0,
			"byteLength":18696,
			"byteOffset":5457640,
			"target":34962
		},
		{
			"buffer":0,
			"byteLength":18696,
			"byteOffset":5476336,
			"target":34962
		},
		{
			"buffer":0,
			"byteLength":12464,
			"byteOffset":5495032,
			"target":34962
		},
		{
			"buffer":0,
			"byteLength":6594,
			"byteOffset":5507496,
			"target":34963
		}
	],
	"samplers":[
		{
			"magFilter":9729,
			"minFilter":9987
		}
	],
	"buffers":[
		{
			"byteLength":5514092,
			"uri":"BaalshaminTemple.bin"
		}
	]
}
