{
	"asset":{
		"generator":"Khronos glTF Blender I/O v4.2.60",
		"version":"2.0"
	},
	"scene":0,
	"scenes":[
		{
			"name":"Scene",
			"nodes":[
				0
			]
		}
	],
	"nodes":[
		{
			"mesh":0,
			"name":"Baalshamin_Temple_117k_miniature"
		}
	],
	"materials":[
		{
			"doubleSided":true,
			"name":"Baalshamin_Temple_Walls",
			"normalTexture":{
				"index":0
			},
			"pbrMetallicRoughness":{
				"baseColorTexture":{
					"index":1
				},
				"metallicFactor":0,
				"roughnessFactor":0.8999999761581421
			}
		},
		{
			"doubleSided":true,
			"name":"Baalshamin_Temple_PilarsOrnaments",
			"normalTexture":{
				"index":2
			},
			"pbrMetallicRoughness":{
				"baseColorTexture":{
					"index":3
				},
				"metallicFactor":0,
				"roughnessFactor":0.8999999761581421
			}
		},
		{
			"doubleSided":true,
			"name":"Baalshamin_Temple_Inside",
			"normalTexture":{
				"index":4
			},
			"pbrMetallicRoughness":{
				"baseColorTexture":{
					"index":5
				},
				"metallicFactor":0,
				"roughnessFactor":0.8999999761581421
			}
		},
		{
			"doubleSided":true,
			"name":"Baalshamin_Temple_FloorSand",
			"normalTexture":{
				"index":6
			},
			"pbrMetallicRoughness":{
				"baseColorTexture":{
					"index":7
				},
				"metallicFactor":0,
				"roughnessFactor":0.8999999761581421
			}
		},
		{
			"doubleSided":true,
			"name":"Baalshamin_Temple_Floor",
			"normalTexture":{
				"index":8
			},
			"pbrMetallicRoughness":{
				"baseColorTexture":{
					"index":9
				},
				"metallicFactor":0,
				"roughnessFactor":0.8999999761581421
			}
		}
	],
	"meshes":[
		{
			"name":"Mesh",
			"primitives":[
				{
					"attributes":{
						"POSITION":0,
						"NORMAL":1,
						"TEXCOORD_0":2
					},
					"indices":3,
					"material":0
				},
				{
					"attributes":{
						"POSITION":4,
						"NORMAL":5,
						"TEXCOORD_0":6
					},
					"indices":7,
					"material":1
				},
				{
					"attributes":{
						"POSITION":8,
						"NORMAL":9,
						"TEXCOORD_0":10
					},
					"indices":11,
					"material":2
				},
				{
					"attributes":{
						"POSITION":12,
						"NORMAL":13,
						"TEXCOORD_0":14
					},
					"indices":15,
					"material":3
				},
				{
					"attributes":{
						"POSITION":16,
						"NORMAL":17,
						"TEXCOORD_0":18
					},
					"indices":19,
					"material":4
				}
			]
		}
	],
	"textures":[
		{
			"sampler":0,
			"source":0
		},
		{
			"sampler":0,
			"source":1
		},
		{
			"sampler":0,
			"source":2
		},
		{
			"sampler":0,
			"source":3
		},
		{
			"sampler":0,
			"source":4
		},
		{
			"sampler":0,
			"source":5
		},
		{
			"sampler":0,
			"source":6
		},
		{
			"sampler":0,
			"source":7
		},
		{
			"sampler":0,
			"source":8
		},
		{
			"sampler":0,
			"source":9
		}
	],
	"images":[
		{
			"mimeType":"image/jpeg",
			"name":"BaalshaminTemple_LowPoly_220628_SP_Walls_Normal",
			"uri":"BaalshaminTemple_LowPoly_220628_SP_Walls_Normal.jpg"
		},
		{
			"mimeType":"image/jpeg",
			"name":"BaalshaminTemple_LowPoly_220628_SP_Walls_Diffuse",
			"uri":"BaalshaminTemple_LowPoly_220628_SP_Walls_Diffuse.jpg"
		},
		{
			"mimeType":"image/jpeg",
			"name":"BaalshaminTemple_LowPoly_220628_SP_PilarsOrnaments_Normal",
			"uri":"BaalshaminTemple_LowPoly_220628_SP_PilarsOrnaments_Normal.jpg"
		},
		{
			"mimeType":"image/jpeg",
			"name":"BaalshaminTemple_LowPoly_220628_SP_PilarsOrnaments_Diffuse",
			"uri":"BaalshaminTemple_LowPoly_220628_SP_PilarsOrnaments_Diffuse.jpg"
		},
		{
			"mimeType":"image/jpeg",
			"name":"BaalshaminTemple_LowPoly_220628_SP_Inside_Normal",
			"uri":"BaalshaminTemple_LowPoly_220628_SP_Inside_Normal.jpg"
		},
		{
			"mimeType":"image/jpeg",
			"name":"BaalshaminTemple_LowPoly_220628_SP_Inside_Diffuse",
			"uri":"BaalshaminTemple_LowPoly_220628_SP_Inside_Diffuse.jpg"
		},
		{
			"mimeType":"image/jpeg",
			"name":"BaalshaminTemple_LowPoly_220628_SP_FloorSand_Normal",
			"uri":"BaalshaminTemple_LowPoly_220628_SP_FloorSand_Normal.jpg"
		},
		{
			"mimeType":"image/jpeg",
			"name":"BaalshaminTemple_LowPoly_220628_SP_FloorSand_Diffuse",
			"uri":"BaalshaminTemple_LowPoly_220628_SP_FloorSand_Diffuse.jpg"
		},
		{
			"mimeType":"image/jpeg",
			"name":"BaalshaminTemple_LowPoly_220628_SP_Floor_Normal",
			"uri":"BaalshaminTemple_LowPoly_220628_SP_Floor_Normal.jpg"
		},
		{
			"mimeType":"image/jpeg",
			"name":"BaalshaminTemple_LowPoly_220628_SP_Floor_Diffuse",
			"uri":"BaalshaminTemple_LowPoly_220628_SP_Floor_Diffuse.jpg"
		}
	],
	"accessors":[
		{
			"bufferView":0,
			"componentType":5126,
			"count":31549,
			"max":[
				0.6851056218147278,
				1.5977615118026733,
				1.0348776578903198
			],
			"min":[
				-0.6878496408462524,
				0.09600383788347244,
				-1.1858714818954468
			],
			"type":"VEC3"
		},
		{
			"bufferView":1,
			"componentType":5126,
			"count":31549,
			"type":"VEC3"
		},
		{
			"bufferView":2,
			"componentType":5126,
			"count":31549,
			"type":"VEC2"
		},
		{
			"bufferView":3,
			"componentType":5123,
			"count":103446,
			"type":"SCALAR"
		},
		{
			"bufferView":4,
			"componentType":5126,
			"count":39656,
			"max":[
				0.7254409193992615,
				1.4921432733535767,
				1.1031577587127686
			],
			"min":[
				-0.727353036403656,
				0.24049794673919678,
				-1.2274439334869385
			],
			"type":"VEC3"
		},
		{
			"bufferView":5,
			"componentType":5126,
			"count":39656,
			"type":"VEC3"
		},
		{
			"bufferView":6,
			"componentType":5126,
			"count":39656,
			"type":"VEC2"
		},
		{
			"bufferView":7,
			"componentType":5123,
			"count":117972,
			"type":"SCALAR"
		},
		{
			"bufferView":8,
			"componentType":5126,
			"count":24809,
			"max":[
				0.5586763024330139,
				0.9371850490570068,
				0.20549343526363373
			],
			"min":[
				-0.5501793622970581,
				0.11843626201152802,
				-1.0212208032608032
			],
			"type":"VEC3"
		},
		{
			"bufferView":9,
			"componentType":5126,
			"count":24809,
			"type":"VEC3"
		},
		{
			"bufferView":10,
			"componentType":5126,
			"count":24809,
			"type":"VEC2"
		},
		{
			"bufferView":11,
			"componentType":5123,
			"count":90492,
			"type":"SCALAR"
		},
		{
			"bufferView":12,
			"componentType":5126,
			"count":4,
			"max":[
				0.5812035202980042,
				0.14469341933727264,
				0.2550011873245239
			],
			"min":[
				-0.5549796223640442,
				0.14469337463378906,
				-1.0962082147598267
			],
			"type":"VEC3"
		},
		{
			"bufferView":13,
			"componentType":5126,
			"count":4,
			"type":"VEC3"
		},
		{
			"bufferView":14,
			"componentType":5126,
			"count":4,
			"type":"VEC2"
		},
		{
			"bufferView":15,
			"componentType":5123,
			"count":6,
			"type":"SCALAR"
		},
		{
			"bufferView":16,
			"componentType":5126,
			"count":11580,
			"max":[
				0.7437600493431091,
				0.2609195113182068,
				1.1409876346588135
			],
			"min":[
				-0.7392963767051697,
				0.036343008279800415,
				-1.2337735891342163
			],
			"type":"VEC3"
		},
		{
			"bufferView":17,
			"componentType":5126,
			"count":11580,
			"type":"VEC3"
		},
		{
			"bufferView":18,
			"componentType":5126,
			"count":11580,
			"type":"VEC2"
		},
		{
			"bufferView":19,
			"componentType":5123,
			"count":38820,
			"type":"SCALAR"
		}
	],
	"bufferViews":[
		{
			"buffer":0,
			"byteLength":378588,
			"byteOffset":0,
			"target":34962
		},
		{
			"buffer":0,
			"byteLength":378588,
			"byteOffset":378588,
			"target":34962
		},
		{
			"buffer":0,
			"byteLength":252392,
			"byteOffset":757176,
			"target":34962
		},
		{
			"buffer":0,
			"byteLength":206892,
			"byteOffset":1009568,
			"target":34963
		},
		{
			"buffer":0,
			"byteLength":475872,
			"byteOffset":1216460,
			"target":34962
		},
		{
			"buffer":0,
			"byteLength":475872,
			"byteOffset":1692332,
			"target":34962
		},
		{
			"buffer":0,
			"byteLength":317248,
			"byteOffset":2168204,
			"target":34962
		},
		{
			"buffer":0,
			"byteLength":235944,
			"byteOffset":2485452,
			"target":34963
		},
		{
			"buffer":0,
			"byteLength":297708,
			"byteOffset":2721396,
			"target":34962
		},
		{
			"buffer":0,
			"byteLength":297708,
			"byteOffset":3019104,
			"target":34962
		},
		{
			"buffer":0,
			"byteLength":198472,
			"byteOffset":3316812,
			"target":34962
		},
		{
			"buffer":0,
			"byteLength":180984,
			"byteOffset":3515284,
			"target":34963
		},
		{
			"buffer":0,
			"byteLength":48,
			"byteOffset":3696268,
			"target":34962
		},
		{
			"buffer":0,
			"byteLength":48,
			"byteOffset":3696316,
			"target":34962
		},
		{
			"buffer":0,
			"byteLength":32,
			"byteOffset":3696364,
			"target":34962
		},
		{
			"buffer":0,
			"byteLength":12,
			"byteOffset":3696396,
			"target":34963
		},
		{
			"buffer":0,
			"byteLength":138960,
			"byteOffset":3696408,
			"target":34962
		},
		{
			"buffer":0,
			"byteLength":138960,
			"byteOffset":3835368,
			"target":34962
		},
		{
			"buffer":0,
			"byteLength":92640,
			"byteOffset":3974328,
			"target":34962
		},
		{
			"buffer":0,
			"byteLength":77640,
			"byteOffset":4066968,
			"target":34963
		}
	],
	"samplers":[
		{
			"magFilter":9729,
			"minFilter":9987
		}
	],
	"buffers":[
		{
			"byteLength":4144608,
			"uri":"BaalshaminTemple.bin"
		}
	]
}
